+8_ID_stride5.mot
nRows=6
nColumns=38

name +8_ID_stride5.mot
datacolumns 38
datarows 6
range 2.4850000000 2.5100000000
endheader
time	pelvis_tilt_moment	pelvis_list_moment	pelvis_rotation_moment	pelvis_tx_force	pelvis_ty_force	pelvis_tz_force	hip_flexion_r_moment	hip_adduction_r_moment	hip_rotation_r_moment	knee_angle_r_moment	ankle_angle_r_moment	subtalar_angle_r_moment	mtp_angle_r_moment	hip_flexion_l_moment	hip_adduction_l_moment	hip_rotation_l_moment	knee_angle_l_moment	ankle_angle_l_moment	subtalar_angle_l_moment	mtp_angle_l_moment	lumbar_extension_moment	lumbar_bending_moment	lumbar_rotation_moment	arm_flex_r_moment	arm_add_r_moment	arm_rot_r_moment	elbow_flex_r_moment	pro_sup_r_moment	wrist_flex_r_moment	wrist_dev_r_moment	arm_flex_l_moment	arm_add_l_moment	arm_rot_l_moment	elbow_flex_l_moment	pro_sup_l_moment	wrist_flex_l_moment	wrist_dev_l_moment
        2.4850000000	       12.8552143897	       10.8200505542	       26.6420043766	      -10.4582414004	      -61.6626548348	      -70.1801334579	      -12.2743866136	       -9.3602314627	        0.5048384464	       -0.6232863012	        2.5336931534	       -0.5639969707	        0.1396369035	       10.7444575411	      -45.7766915448	      -11.1135177030	        7.6778973574	     -186.1215915868	       24.6891100285	       -0.0384248917	       28.1441837133	       10.1723922911	       36.5481786378	        7.1356418274	        4.9467893374	        3.8457941822	        5.2664852570	        0.0106556738	        0.5170235790	       -0.3551672407	        0.1130541807	       -1.6269850170	       -3.0224472514	        5.0377299661	       -0.1989232851	       -0.2497204174	       -0.5068578930	
        2.4900000000	       17.7981457333	       -4.8770363592	       24.5559358864	       -9.6755157003	      -64.7743110534	      -70.5109823137	      -14.1689410468	      -12.3196797006	        1.0839725401	       -1.0637654247	        2.6068824640	       -0.6573506289	        0.1395936687	        8.2128772857	      -40.2242937146	      -11.5935344946	        0.0778911324	     -174.5318657898	       23.6683122707	       -0.0448494295	       16.8601792414	        6.2627904171	       36.9401831147	        6.9675501069	        4.7927747178	        3.8156378887	        4.7366166887	        0.0228648474	        0.5035863528	       -0.3026507679	       -0.3345653019	       -1.8880379270	       -3.1019864969	        4.3799704948	       -0.1912908719	       -0.2734219604	       -0.4478263182	
        2.4950000000	       21.9448143351	      -20.9081209731	       21.6701798531	      -10.3355565565	      -57.9944637776	      -64.1067820732	      -16.6801654239	      -14.5496230073	        1.4929450495	       -1.7188693162	        2.6793563501	       -0.7499121148	        0.1405026179	        6.5378847171	      -34.8579348361	      -11.3296721921	       -6.6688112874	     -161.4051049641	       22.4230244415	       -0.0504617515	        7.4888392217	        2.5275274806	       36.1963824619	        6.5969940149	        4.5116261081	        3.6822236063	        4.2187212342	        0.0308712237	        0.4790676353	       -0.2545081780	       -0.7665697004	       -1.9377052123	       -3.0322772787	        3.7502773558	       -0.1798190149	       -0.2752615150	       -0.3880548918	
        2.5000000000	       23.4750958549	      -27.0496222101	       17.9178332267	      -12.8420956855	      -44.5140287772	      -54.9240846260	      -19.6621859883	      -15.2605421659	        1.6220453328	       -2.5422872386	        2.7479687236	       -0.8347694229	        0.1424847512	        6.8737555281	      -30.2563159927	      -10.2515784608	       -9.0949753602	     -147.1446604537	       21.2944150178	       -0.0549316236	        0.3115808368	       -1.2099431736	       34.5800328940	        6.0622381815	        4.1312387396	        3.4542675403	        3.7215048857	        0.0362785067	        0.4464010129	       -0.2109666017	       -1.1899272913	       -1.9364237689	       -2.8684273836	        3.1511556422	       -0.1655882371	       -0.2741838039	       -0.3295743809	
        2.5050000000	       23.4796734850	      -26.0730766516	       13.2758684635	      -20.7291321766	      -30.2678469517	      -50.5420939153	      -22.9768874513	      -14.4186443706	        1.5021242875	       -3.4955420135	        2.8105574052	       -0.9060649136	        0.1451984497	       16.9393361474	      -26.7028713713	       -6.5795411936	       -8.3747077239	     -131.8565937716	       20.4350954481	       -0.0576302788	       -4.5018473530	       -5.0272963262	       32.4818966575	        5.4382593071	        3.6871863338	        3.1789307309	        3.2527297003	        0.0398225103	        0.4096388610	       -0.1725921168	       -1.6083067061	       -1.7983582580	       -2.6251587469	        2.5867885612	       -0.1496834729	       -0.2596894832	       -0.2740187920	
        2.5100000000	       20.3941834308	      -14.8789558602	        9.1151046478	      -30.2891636142	      -19.6905467208	      -51.0162240083	      -26.1549542071	      -11.1968422974	        1.0931854268	       -4.4946719075	        2.8700839560	       -0.9617367862	        0.1484413519	       31.5441956617	      -23.7043033873	       -2.0207332158	       -3.9209562930	     -115.5710994504	       19.3708338796	       -0.0578806304	       -7.3861485827	       -8.6794367699	       30.4107867685	        4.8168566444	        3.2029158170	        2.8848958539	        2.8028247855	        0.0427336484	        0.3723243886	       -0.1379027533	       -2.0251840874	       -1.6009944429	       -2.3584618260	        2.0407373143	       -0.1332717338	       -0.2434123128	       -0.2213134147	
